<svg xmlns="http://www.w3.org/2000/svg" viewBox="0 0 960 540" role="img" aria-label="Northwind claim-status timeline demo">
  <rect width="960" height="540" fill="#f6f8fb"/>
  <rect x="0" y="0" width="960" height="48" fill="#0B5394"/>
  <text x="24" y="32" font-family="Inter, sans-serif" font-size="16" fill="#fff" font-weight="700">Demo 3 · Claim status</text>
  <rect x="640" y="12" width="180" height="24" rx="12" fill="#F4B400"/>
  <text x="730" y="29" font-family="Inter, sans-serif" font-size="12" fill="#1a1a1a" text-anchor="middle" font-weight="700">Synthetic data — no PHI</text>

  <rect x="24" y="72" width="912" height="72" rx="6" fill="#fff" stroke="#cdd8e7"/>
  <text x="44" y="100" font-family="Inter, sans-serif" font-size="13" fill="#54607a">Claim ID</text>
  <text x="44" y="124" font-family="Inter, sans-serif" font-size="16" fill="#0b1530" font-weight="700">NW-CLM-2025-0418-77321</text>
  <text x="280" y="100" font-family="Inter, sans-serif" font-size="13" fill="#54607a">Service date</text>
  <text x="280" y="124" font-family="Inter, sans-serif" font-size="16" fill="#0b1530" font-weight="700">2025-03-14</text>
  <text x="460" y="100" font-family="Inter, sans-serif" font-size="13" fill="#54607a">Provider</text>
  <text x="460" y="124" font-family="Inter, sans-serif" font-size="16" fill="#0b1530" font-weight="700">Midtown Endocrine Associates</text>
  <text x="800" y="100" font-family="Inter, sans-serif" font-size="13" fill="#54607a">Member resp.</text>
  <text x="800" y="124" font-family="Inter, sans-serif" font-size="16" fill="#0b1530" font-weight="700">$49.70</text>

  <rect x="24" y="172" width="600" height="240" rx="6" fill="#fff" stroke="#cdd8e7"/>
  <text x="44" y="200" font-family="Inter, sans-serif" font-size="12" fill="#0B5394" font-weight="700">CANONICAL TIMELINE</text>

  <line x1="80" y1="280" x2="580" y2="280" stroke="#cdd8e7" stroke-width="2"/>

  <g font-family="Inter, sans-serif" font-size="11" fill="#374151">
    <circle cx="100" cy="280" r="14" fill="#0B5394"/>
    <text x="100" y="285" font-size="11" fill="#fff" text-anchor="middle" font-weight="700">1</text>
    <text x="100" y="312" text-anchor="middle" font-weight="700">Received</text>
    <text x="100" y="328" text-anchor="middle" fill="#7a8aa3">03-17 09:14</text>
    <text x="100" y="344" text-anchor="middle" fill="#7a8aa3">EDI837</text>

    <circle cx="220" cy="280" r="14" fill="#0B5394"/>
    <text x="220" y="285" font-size="11" fill="#fff" text-anchor="middle" font-weight="700">2</text>
    <text x="220" y="312" text-anchor="middle" font-weight="700">Validated</text>
    <text x="220" y="328" text-anchor="middle" fill="#7a8aa3">03-17 09:14</text>
    <text x="220" y="344" text-anchor="middle" fill="#7a8aa3">Eligibility</text>

    <circle cx="340" cy="280" r="14" fill="#0B5394"/>
    <text x="340" y="285" font-size="11" fill="#fff" text-anchor="middle" font-weight="700">3</text>
    <text x="340" y="312" text-anchor="middle" font-weight="700">Adjudicated</text>
    <text x="340" y="328" text-anchor="middle" fill="#7a8aa3">03-19 16:02</text>
    <text x="340" y="344" text-anchor="middle" fill="#7a8aa3">Adj. engine</text>

    <circle cx="460" cy="280" r="14" fill="#0B5394"/>
    <text x="460" y="285" font-size="11" fill="#fff" text-anchor="middle" font-weight="700">4</text>
    <text x="460" y="312" text-anchor="middle" font-weight="700">Paid</text>
    <text x="460" y="328" text-anchor="middle" fill="#7a8aa3">03-24 11:30</text>
    <text x="460" y="344" text-anchor="middle" fill="#7a8aa3">Payables</text>

    <circle cx="560" cy="280" r="14" fill="#F4B400"/>
    <text x="560" y="285" font-size="11" fill="#1a1a1a" text-anchor="middle" font-weight="700">5</text>
    <text x="560" y="312" text-anchor="middle" font-weight="700">Notified</text>
    <text x="560" y="328" text-anchor="middle" fill="#7a8aa3">03-25 07:00</text>
    <text x="560" y="344" text-anchor="middle" fill="#7a8aa3">Notifications</text>
  </g>

  <text x="44" y="240" font-family="Inter, sans-serif" font-size="12" fill="#374151">Last updated: 2025-03-25 07:00 UTC · Current state: <tspan fill="#0B5394" font-weight="700">notified</tspan></text>

  <rect x="640" y="172" width="296" height="240" rx="6" fill="#fff" stroke="#cdd8e7"/>
  <text x="660" y="200" font-family="Inter, sans-serif" font-size="12" fill="#0B5394" font-weight="700">SOURCE-SYSTEM PAYLOAD</text>
  <g font-family="ui-monospace, monospace" font-size="11" fill="#1f2937">
    <text x="660" y="226">step: adjudicated</text>
    <text x="660" y="244">source: AdjudicationEngine</text>
    <text x="660" y="262">ts: 2025-03-19T16:02:11Z</text>
    <text x="660" y="280">in_network: true</text>
    <text x="660" y="298">deductible_met: true</text>
    <text x="660" y="316">coinsurance_pct: 20</text>
    <text x="660" y="334">allowed_usd: 248.50</text>
    <text x="660" y="352">plan_paid_usd: 198.80</text>
    <text x="660" y="370">member_resp_usd: 49.70</text>
  </g>
  <text x="660" y="396" font-family="Inter, sans-serif" font-size="11" fill="#7a8aa3">Compliance audits this view in real engagements.</text>

  <rect x="24" y="436" width="912" height="72" rx="6" fill="#fff8e0" stroke="#F4B400"/>
  <text x="44" y="464" font-family="Inter, sans-serif" font-size="13" font-weight="700" fill="#8a6d00">Failure path · NW-CLM-2025-0301-44102 — pended for coordination of benefits</text>
  <text x="44" y="486" font-family="Inter, sans-serif" font-size="12" fill="#5a4800">Timeline stops at "validated". Human handoff CTA appears with the trace pre-loaded for member-services.</text>
  <rect x="760" y="450" width="160" height="38" rx="6" fill="#0B5394"/>
  <text x="840" y="475" font-family="Inter, sans-serif" font-size="13" fill="#fff" text-anchor="middle" font-weight="700">Hand off to agent</text>
</svg>
