<svg xmlns="http://www.w3.org/2000/svg" viewBox="0 0 960 540" role="img" aria-label="Northwind MemberAssist — home page wireframe">
  <rect width="960" height="540" fill="#f6f8fb"/>
  <rect x="0" y="0" width="960" height="56" fill="#0B5394"/>
  <text x="24" y="36" font-family="Inter, sans-serif" font-size="18" fill="#fff" font-weight="700">Northwind · MemberAssist</text>
  <rect x="640" y="16" width="180" height="24" rx="12" fill="#F4B400"/>
  <text x="730" y="33" font-family="Inter, sans-serif" font-size="12" fill="#1a1a1a" text-anchor="middle" font-weight="700">Synthetic data — no PHI</text>
  <text x="900" y="36" font-family="Inter, sans-serif" font-size="14" fill="#dbe6f5" text-anchor="end">☀ / ☾</text>

  <rect x="0" y="56" width="220" height="484" fill="#eef3fa"/>
  <text x="24" y="88" font-family="Inter, sans-serif" font-size="11" fill="#54607a" font-weight="700">AGENDA</text>
  <g font-family="Inter, sans-serif" font-size="13" fill="#1f2937">
    <text x="24" y="112">1. Welcome &amp; framing</text>
    <text x="24" y="138">2. Member journeys today</text>
    <text x="24" y="164">3. The MemberAssist concept</text>
    <text x="24" y="190" font-weight="700" fill="#0B5394">4. Demo · Benefits chat</text>
    <text x="24" y="216">5. Demo · Provider search</text>
    <text x="24" y="242">6. Demo · Claim status</text>
    <text x="24" y="268">7. Demo · EOB analysis</text>
    <text x="24" y="294">8. Demo · Evaluation</text>
    <text x="24" y="320">9. Roadmap &amp; next steps</text>
  </g>

  <rect x="252" y="84" width="680" height="92" rx="6" fill="#fff" stroke="#cdd8e7"/>
  <text x="272" y="120" font-family="Inter, sans-serif" font-size="22" fill="#0b1530" font-weight="700">MemberAssist — grounded answers for Northwind members</text>
  <text x="272" y="146" font-family="Inter, sans-serif" font-size="14" fill="#4b5b76">Half-day workshop · 9 sections · member services + claims + compliance</text>
  <text x="272" y="166" font-family="Inter, sans-serif" font-size="12" fill="#7a8aa3">22k calls/week · 7m12s AHT · 64% FCR — the numbers driving today.</text>

  <rect x="252" y="196" width="220" height="100" rx="6" fill="#fff" stroke="#cdd8e7"/>
  <text x="272" y="222" font-family="Inter, sans-serif" font-size="11" fill="#0B5394" font-weight="700">AUDIENCE</text>
  <g font-family="Inter, sans-serif" font-size="12" fill="#374151">
    <text x="272" y="246">Rosa — VP Member Services</text>
    <text x="272" y="264">Marcus — Director, Claims Ops</text>
    <text x="272" y="282">Hana — Plan Architect</text>
  </g>

  <rect x="482" y="196" width="220" height="100" rx="6" fill="#fff" stroke="#cdd8e7"/>
  <text x="502" y="222" font-family="Inter, sans-serif" font-size="11" fill="#0B5394" font-weight="700">REQUIREMENTS</text>
  <g font-family="Inter, sans-serif" font-size="12" fill="#374151">
    <text x="502" y="246">R1 grounded benefits Q&amp;A</text>
    <text x="502" y="264">R3 claim-status timeline</text>
    <text x="502" y="282">R5 PHI-leak gauge</text>
  </g>

  <rect x="712" y="196" width="220" height="100" rx="6" fill="#fff" stroke="#cdd8e7"/>
  <text x="732" y="222" font-family="Inter, sans-serif" font-size="11" fill="#0B5394" font-weight="700">PROMISE</text>
  <g font-family="Inter, sans-serif" font-size="12" fill="#374151">
    <text x="732" y="246">Citations on every answer</text>
    <text x="732" y="264">Human handoff always visible</text>
    <text x="732" y="282">Auditable trace per response</text>
  </g>

  <rect x="252" y="316" width="680" height="200" rx="6" fill="#fff" stroke="#cdd8e7"/>
  <text x="272" y="346" font-family="Inter, sans-serif" font-size="14" font-weight="700" fill="#0b1530">Start the workshop</text>
  <rect x="272" y="364" width="180" height="38" rx="6" fill="#0B5394"/>
  <text x="362" y="389" font-family="Inter, sans-serif" font-size="13" fill="#fff" text-anchor="middle" font-weight="700">Begin walkthrough</text>
  <rect x="466" y="364" width="180" height="38" rx="6" fill="#fff" stroke="#0B5394"/>
  <text x="556" y="389" font-family="Inter, sans-serif" font-size="13" fill="#0B5394" text-anchor="middle">Presenter mode</text>
  <rect x="660" y="364" width="200" height="38" rx="6" fill="#fff" stroke="#F4B400"/>
  <text x="760" y="389" font-family="Inter, sans-serif" font-size="13" fill="#8a6d00" text-anchor="middle">Open evaluation dashboard</text>

  <text x="272" y="438" font-family="Inter, sans-serif" font-size="11" fill="#7a8aa3" font-weight="700">SUCCESS CRITERIA (OBSERVABLE IN THE ROOM)</text>
  <g font-family="Inter, sans-serif" font-size="12" fill="#374151">
    <text x="272" y="460">• Each persona names which demo covers which requirement.</text>
    <text x="272" y="478">• Compliance articulates the PHI safeguards in their own words.</text>
    <text x="272" y="496">• VP commits to a 30-day pilot with two named call-centre agents.</text>
  </g>
</svg>
